<svg width="1400" height="980" viewBox="0 0 1400 980" fill="none" xmlns="http://www.w3.org/2000/svg">
<path d="M1400 0H0V980H1400V0Z" fill="white"/>
<path d="M530.509 184.11C492.404 201.251 455.703 222.015 423.394 248.51C403.302 264.987 385.044 283.56 366.831 302.093C306.022 363.968 245.213 425.842 184.404 487.716C167.119 505.304 149.711 523.044 136.257 543.71C90.358 614.215 99.012 712.125 146.6 781.502C194.188 850.879 274.948 892.997 358.015 906.328C441.081 919.66 526.473 906.635 607.246 883.108C655.779 868.971 703.21 851.057 748.97 829.581C791.891 809.435 833.9 785.958 880.093 775.268C929.624 763.804 981.197 767.669 1032.03 768.601C1071.34 769.321 1110.68 768.245 1149.89 765.376C1186.21 762.719 1225 757.427 1252.13 733.134C1276.7 711.14 1286.99 677.756 1296.22 646.102C1306.45 611.067 1316.74 574.112 1308.39 538.584C1303.84 519.248 1294.01 501.632 1284.3 484.307C1240.43 406.07 1196.56 327.834 1152.69 249.597C1130.55 210.113 1106.36 174.355 1060.33 161.764C1025.51 152.239 987.722 146.374 952.229 139.002C862.005 120.26 768.032 119.857 677.605 137.525C627.019 147.407 577.523 162.962 530.509 184.11Z" fill="#F3EDF1"/>
<path d="M1336.25 45.9678H65.0549V936.556H1336.25V45.9678Z" fill="#863ED2"/>
<path d="M1274.25 725.483H141.28V932.981H1274.25V725.483Z" fill="#6B412F"/>
<path d="M1274.25 782.335H141.28V932.981H1274.25V782.335Z" fill="#84563D"/>
<path d="M303.384 558.565H340.304C345.864 558.565 350.413 563.115 350.413 568.674C350.413 574.234 345.864 578.783 340.304 578.783H303.384C297.824 578.783 293.275 574.233 293.275 568.674C293.274 563.115 297.824 558.565 303.384 558.565Z" fill="#F9CBAC"/>
<path d="M281.678 534.047H318.599C324.159 534.047 328.708 538.596 328.708 544.156C328.708 549.716 324.159 554.265 318.599 554.265H281.678C276.118 554.265 271.569 549.715 271.569 544.156C271.569 538.596 276.118 534.047 281.678 534.047Z" fill="#E2A379"/>
<path d="M239.522 558.565H276.442C282.003 558.565 286.551 563.115 286.551 568.674C286.551 574.234 282.002 578.783 276.442 578.783H239.522C233.962 578.783 229.413 574.233 229.413 568.674C229.414 563.115 233.962 558.565 239.522 558.565Z" fill="#F9CBAC"/>
<path d="M1050.79 793.181H397.04C360.495 793.181 330.869 763.555 330.869 727.01V242.09C330.869 205.545 360.495 175.919 397.04 175.919H1050.79C1087.34 175.919 1116.96 205.545 1116.96 242.09V727.01C1116.96 763.555 1087.34 793.181 1050.79 793.181Z" fill="#F4D5C1"/>
<path d="M1039.67 764.427H408.159C385.697 764.427 367.487 746.217 367.487 723.755V245.346C367.487 222.883 385.696 204.674 408.159 204.674H1039.67C1062.14 204.674 1080.35 222.883 1080.35 245.346V723.755C1080.35 746.217 1062.14 764.427 1039.67 764.427Z" fill="#863ED2"/>
<path d="M1035.7 475.905H405.554V228.09C405.554 215.158 416.038 204.674 428.971 204.674H1012.29C1025.22 204.674 1035.7 215.158 1035.7 228.09V475.905Z" fill="#84563D"/>
<path d="M951.844 466.964H485.342C475.573 466.964 467.654 459.045 467.654 449.276V241.303C467.654 231.534 475.573 223.615 485.342 223.615H951.843C961.612 223.615 969.531 231.534 969.531 241.303V449.277C969.531 459.045 961.612 466.964 951.844 466.964Z" fill="#A57868"/>
<path d="M957.844 461.964H491.342C481.573 461.964 473.654 454.045 473.654 444.276V236.303C473.654 226.534 481.573 218.615 491.342 218.615H957.843C967.612 218.615 975.531 226.534 975.531 236.303V444.277C975.531 454.045 967.612 461.964 957.844 461.964Z" fill="#2E3C6B"/>
<path d="M1036.41 476.084H397.382V721.201H1036.41V476.084Z" fill="#84563D"/>
<path d="M954.703 713.603H484.483C475.741 713.603 468.654 706.516 468.654 697.775V509.512C468.654 500.77 475.741 493.683 484.483 493.683H954.703C963.444 493.683 970.531 500.77 970.531 509.512V697.775C970.531 706.516 963.444 713.603 954.703 713.603Z" fill="#93624D"/>
<path d="M959.703 708.603H489.483C480.741 708.603 473.654 701.516 473.654 692.775V504.512C473.654 495.77 480.741 488.683 489.483 488.683H959.703C968.444 488.683 975.531 495.77 975.531 504.512V692.775C975.531 701.516 968.444 708.603 959.703 708.603Z" fill="#2E3C6B"/>
<path d="M734.919 218H706.695V697H734.919V218Z" fill="#84563D"/>
<path d="M734.244 218H728.717V697H734.244V218Z" fill="#A57868"/>
<path d="M989.396 719.255H454.162L382.02 756.853C388.233 761.601 395.994 764.427 404.417 764.427H1043.42C1051.71 764.427 1059.37 761.69 1065.54 757.072L989.396 719.255Z" fill="#C13B54"/>
<path d="M435.187 442.881L414.269 469.42L397.192 456.218L405.812 437.587L435.187 442.881Z" fill="#ED8D43"/>
<path d="M440.604 453.562L405.719 448.203L419.807 387.073L448.441 394.61C455.366 396.433 459.503 403.525 457.68 410.449L454.222 444.581C453.55 451.211 446.963 455.556 440.604 453.562Z" fill="#ED8D43"/>
<path d="M456.883 418.321C456.883 418.321 456.897 430.154 460.871 433.3C460.871 433.3 458.285 437.422 453.439 436.447" fill="#ED8D43"/>
<path d="M883.994 716.041C883.994 716.041 932.929 658.48 940.222 633.137C947.514 607.793 954.531 640.942 954.531 640.942L943.411 734.107C943.411 734.107 936.157 743.804 912.544 734.79C888.929 725.774 885.295 720.464 883.994 716.041Z" fill="#ED8D43"/>
<path d="M943.33 625.566C942.312 627.063 941.269 629.493 940.222 633.136C935.661 648.983 914.823 677.425 899.843 696.516C899.843 696.516 921.667 670.666 931.787 659.332C941.907 648 943.33 625.566 943.33 625.566Z" fill="#F79857"/>
<path d="M578.712 658.129C578.712 658.129 718.331 653.545 740.589 675.075C762.846 696.605 724.389 727.548 672.503 735.622C441.185 771.616 472.098 709.222 472.098 709.222C472.098 709.222 448.38 690.41 481.03 658.495C513.681 626.581 578.712 658.129 578.712 658.129Z" fill="#36458E"/>
<path d="M583.029 658.014C582.567 658.227 582.106 658.442 581.666 658.667C581.666 658.667 684.781 666.043 710.557 664.688C711.333 664.647 711.974 664.584 712.496 664.505C671.106 656.534 601.007 657.589 583.029 658.014Z" fill="#445596"/>
<path d="M725.424 664.688L898.248 696.515C898.248 696.515 916.602 715.326 902.281 732.63C902.281 732.63 835.209 732.387 826.82 736.307C818.43 740.226 751.874 736.599 736.032 721.201C720.189 705.804 698.824 676.314 725.424 664.688Z" fill="#36458E"/>
<path d="M826.82 736.309C835.209 732.389 902.281 732.631 902.281 732.631C903.37 731.316 904.249 729.99 904.983 728.666C904.335 728.657 903.683 728.65 903 728.667C846.333 730 729 700 729 700C726.516 701.211 723.851 702.329 721.029 703.361C725.453 710.044 731.018 716.328 736.032 721.201C751.874 736.6 818.431 740.228 826.82 736.309Z" fill="#212D5B"/>
<path d="M741.416 703.052C733.607 701.178 729 700 729 700C675.667 726 539.667 709.333 539.667 709.333C539.667 709.333 511.175 721.547 492.206 738.867C516.571 748.029 567.539 751.955 672.504 735.622C703.859 730.742 730.305 717.51 741.416 703.052Z" fill="#212D5B"/>
<path d="M760.619 671.17C760.619 671.17 854.83 696.698 898.248 696.516L760.619 671.17Z" fill="#445596"/>
<path d="M502.029 638.141C502.029 638.141 606.742 545.676 637.614 548.098C668.486 550.519 657.59 598.037 623.691 638.141C589.793 678.245 535.338 764.083 454.804 746.647C450.29 745.669 421.662 741.653 426.958 700.642C432.807 655.359 502.029 638.141 502.029 638.141Z" fill="#414DA3"/>
<path d="M623.692 638.141C625.392 636.13 627.03 634.101 628.611 632.06C628.611 632.06 492.685 757.904 442.509 689.286C439.945 685.778 437.379 682.661 434.825 679.872C430.799 686.016 427.956 692.92 426.959 700.643C421.663 741.654 450.291 745.67 454.804 746.648C535.339 764.083 589.793 678.244 623.692 638.141Z" fill="#324177"/>
<path d="M768.972 680.06C768.972 680.06 831.927 721.829 857.955 726.066C883.984 730.303 851.902 741.199 851.902 741.199H758.076C758.076 741.199 747.587 735.146 753.739 710.63C759.892 686.113 764.734 681.876 768.972 680.06Z" fill="#ED8D43"/>
<path d="M648.646 551.984L768.972 680.06C768.972 680.06 772.604 706.089 750.812 711.538C750.812 711.538 696.938 671.586 687.858 669.77C678.778 667.954 627.325 625.581 623.692 603.789C620.06 581.996 620.332 545.581 648.646 551.984Z" fill="#414DA3"/>
<path d="M768.972 680.06L652.143 555.706C652.158 555.726 738.613 669.121 768.972 680.06Z" fill="#4F5EAA"/>
<path d="M449.833 445.104C449.833 445.104 442.002 444.543 439.801 440.362" stroke="#231F20" stroke-miterlimit="10"/>
<path d="M603.414 534.843C603.414 534.843 608.559 530.846 611.283 527.214C614.007 523.582 623.39 508.146 631.865 509.054C640.34 509.962 649.506 514.2 655.819 511.172C655.819 511.172 656.291 523.001 643.17 521.93C643.17 521.93 640.643 529.938 626.72 536.294C612.798 542.649 601.296 551.24 601.296 551.24L603.414 534.843Z" fill="#E57C35"/>
<path d="M644.349 511.528C644.35 511.528 644.351 511.528 644.353 511.527C640.3 510.729 636 509.497 631.865 509.053C631.327 508.995 630.786 509.005 630.243 509.072C630.879 509.546 635.823 512.952 644.349 511.528Z" fill="#EF8C48"/>
<path d="M379.895 455.633C379.895 455.633 442.093 467.891 454.805 490.591C467.517 513.291 474.562 513.588 495.211 532.36C509.64 545.477 491.125 588.202 486.131 589.109C481.137 590.017 476.615 626.792 502.03 638.141C502.03 638.141 422.117 674.613 433.618 736.356C433.618 736.355 333.133 661.295 379.895 455.633Z" fill="#7F93CE"/>
<path d="M372.884 492.116C345.122 670.241 433.618 736.355 433.618 736.355C430.282 718.446 434.645 702.667 442.51 689.285C366.525 633.797 372.83 493.288 372.884 492.116Z" fill="#5C729E"/>
<path d="M485 530.128C500.293 543.524 500.564 546.323 500.566 546.338C500.31 540.598 498.757 535.583 495.211 532.359C475.87 514.775 468.463 513.401 457.156 494.641C457.155 494.642 469.667 516.695 485 530.128Z" fill="#8EA5DD"/>
<path d="M482.558 598.026L480.666 595.994C480.666 595.994 475.099 620.958 484.999 631.389C489.995 636.652 493.849 639.471 496.445 640.977C499.918 639.106 502.028 638.141 502.028 638.141C484.268 630.209 481.134 609.873 482.558 598.026Z" fill="#8EA5DD"/>
<path d="M533.195 569.89C533.195 569.89 594.031 538.11 603.716 529.332C603.716 529.332 608.861 533.5 608.558 551.24C608.559 551.24 553.474 568.981 533.195 569.89Z" fill="#7F93CE"/>
<path d="M724.343 443.034C724.343 443.034 710.861 430.597 711.768 420.037L646.393 509.016C646.393 509.016 640.019 513.277 648.512 518.134L724.343 443.034Z" fill="#41383B"/>
<path d="M721.807 445.545C721.807 445.545 700.872 441.493 701.175 420.037L644.348 511.528C644.348 511.528 643.365 518.122 648.511 518.133L721.807 445.545Z" fill="#D1D1D3"/>
<path d="M720.848 455.633C720.848 455.633 722.362 443.677 728.717 445.796C728.717 445.796 722.362 440.65 715.702 440.65C709.044 440.65 648.511 518.133 648.511 518.133L652.143 542.043L720.848 455.633Z" fill="#E1DFE2"/>
<path d="M653.312 528.597L712.634 455.05C712.634 455.05 718.385 448.997 720.806 456.715L652.101 543.126L653.312 528.597Z" fill="#D1D1D3"/>
<path d="M1020.67 758.492H1014.53C992.992 758.492 975.531 741.031 975.531 719.492V683.128H1059.67V719.492C1059.67 741.031 1042.21 758.492 1020.67 758.492Z" fill="#B28568"/>
<path d="M1017.6 692.511C1040.84 692.511 1059.67 688.31 1059.67 683.128C1059.67 677.946 1040.84 673.745 1017.6 673.745C994.367 673.745 975.531 677.946 975.531 683.128C975.531 688.31 994.367 692.511 1017.6 692.511Z" fill="#473425"/>
<path d="M1026.65 642.556C1030.71 628.809 1036.97 615.49 1046.61 604.888C1052.44 598.487 1059.36 593.205 1066.25 587.961C1066.02 595.877 1064.06 603.637 1061.85 611.239C1057.8 625.134 1052.86 638.766 1047.06 652.023C1045.89 654.687 1044.68 657.348 1043.1 659.792C1041.49 662.297 1039.5 664.54 1037.53 666.772C1035.38 669.202 1033.22 671.631 1031.07 674.061C1028.87 676.548 1024.46 682.666 1020.86 683.113C1017.36 683.548 1020.12 674.52 1020.55 671.692C1022.04 661.878 1023.84 652.087 1026.65 642.556Z" fill="#55A081"/>
<path d="M1004.79 672.932C999.034 661.812 992.199 651.293 985.377 640.795C977.308 628.378 968.352 615.222 954.53 609.904C954.862 611.647 955.193 613.39 955.572 615.124C960.839 639.215 975.718 660.975 995.995 674.948C998.358 676.577 1001.94 679.768 1004.77 680.319C1009.34 681.209 1006.04 675.346 1004.79 672.932Z" fill="#39775E"/>
<path d="M984.102 648.721C982.447 644.981 980.931 640.984 980.029 636.539C979.289 632.893 978.979 629.033 978.673 625.204C978.384 621.584 978.457 616.841 980.442 615.587C981.847 614.699 983.331 616.247 984.615 617.573C989.424 622.542 995.019 625.206 1000.62 625.192C1001.5 625.19 1002.42 625.104 1003.17 624.336C1004.77 622.717 1004.95 618.621 1004.07 615.816C1003.19 613.01 1001.56 611.188 1000.01 609.461C997.399 606.561 994.783 603.543 992.735 599.519C990.686 595.496 989.236 590.294 989.389 584.94C989.416 583.96 989.523 582.897 989.944 582.239C990.273 581.725 990.733 581.558 991.171 581.439C993.435 580.823 995.766 580.964 997.999 581.852C1000.64 582.901 1003.23 584.995 1005.92 584.496C1010.25 583.695 1013.44 575.029 1012.03 567.914C1011.26 564.056 1009.47 561.088 1008.34 557.513C1006.16 550.663 1006.69 541.534 1009.6 535.561C1012.52 529.588 1017.63 527.164 1021.9 529.729C1022.81 530.274 1023.69 531.031 1024.41 532.122C1027.52 536.81 1026.82 545.342 1025.8 552.26C1024.78 559.179 1023.95 567.611 1026.95 572.524C1029.05 575.969 1032.24 576.209 1035.14 576.249C1038.5 576.295 1041.86 576.341 1045.22 576.387C1046.82 576.409 1048.54 576.5 1049.81 578.17C1051.26 580.081 1051.71 583.694 1051.25 586.751C1050.79 589.809 1049.58 592.37 1048.22 594.48C1042.37 603.573 1033.31 606.354 1029.21 617.96C1028.65 619.537 1028.2 621.481 1028.6 623.196C1028.88 624.401 1029.53 625.226 1030.18 625.879C1034.14 629.858 1039.05 629.627 1043.56 628.227C1048.07 626.826 1052.51 624.371 1057.09 624.286C1057.5 624.278 1057.93 624.301 1058.28 624.676C1058.65 625.068 1058.85 625.774 1059.01 626.462C1061.1 635.567 1057.94 645.723 1054.21 653.086C1047.15 666.985 1037.52 676.791 1027.15 681.149C1016 685.835 1007.68 682.083 998.15 671.264C992.784 665.171 988.002 657.535 984.102 648.721Z" fill="#4C9278"/>
<path d="M1016.63 544.148C1015.6 556.05 1014.59 568.238 1017.66 579.781C1018.34 582.326 1019.22 584.825 1019.64 587.424C1021.31 597.593 1016.01 607.485 1014.4 617.662C1011.24 637.578 1022.29 658.485 1016.03 677.65" stroke="#79CCAA" stroke-miterlimit="10" stroke-linecap="round" stroke-linejoin="round"/>
<path d="M1022.37 545.693C1019.68 549.234 1017.28 552.996 1015.2 556.928" stroke="#79CCAA" stroke-miterlimit="10" stroke-linecap="round" stroke-linejoin="round"/>
<path d="M1003.23 588.42C1010.21 592.072 1011.41 602.085 1017.88 606.583" stroke="#79CCAA" stroke-miterlimit="10" stroke-linecap="round" stroke-linejoin="round"/>
<path d="M1043.66 591.181C1041.21 591.307 1038.87 592.35 1036.88 593.784C1031 598.008 1028.16 605.174 1025.51 611.909C1022.86 618.645 1019.77 625.77 1013.65 629.643" stroke="#79CCAA" stroke-miterlimit="10" stroke-linecap="round" stroke-linejoin="round"/>
<path d="M988.396 628.891C996.531 633.193 1000.49 642.463 1006.67 649.278C1009.73 652.641 1013.39 655.449 1017.43 657.523" stroke="#79CCAA" stroke-miterlimit="10" stroke-linecap="round" stroke-linejoin="round"/>
<path d="M1047.94 642.261C1046.09 643.727 1044.25 645.193 1042.4 646.658C1039.59 648.897 1036.75 651.153 1034.38 653.863C1031.22 657.478 1028.91 661.882 1025.16 664.872C1022.89 666.675 1020.22 667.869 1017.57 669.044" stroke="#79CCAA" stroke-miterlimit="10" stroke-linecap="round" stroke-linejoin="round"/>
<path d="M1009.6 535.56C1006.68 541.534 1006.16 550.663 1008.33 557.512C1009.47 561.087 1011.26 564.055 1012.02 567.913C1012.46 570.104 1012.45 572.441 1012.11 574.651C1015.36 569.701 1011.62 557.557 1009.5 550.502C1007.25 543.003 1013.82 530.298 1013.82 530.298C1012.2 531.463 1010.73 533.239 1009.6 535.56Z" fill="#65AA8E"/>
<path d="M1005 612C1004.25 608.25 995 594 992 588.42C990.544 585.713 990.271 583.537 990.483 581.713C990.285 581.832 990.097 581.994 989.941 582.238C989.52 582.896 989.414 583.959 989.386 584.939C989.233 590.293 990.683 595.495 992.732 599.518C994.781 603.542 997.396 606.56 1000 609.46C1001.56 611.188 1003.18 613.01 1004.07 615.815C1004.95 618.62 1004.76 622.714 1003.17 624.335C1005.72 623.479 1005.75 615.75 1005 612Z" fill="#65AA8E"/>
<path d="M983.373 616.357C982.419 615.522 981.411 614.973 980.44 615.586C978.456 616.84 978.382 621.583 978.671 625.203C978.978 629.032 979.287 632.891 980.027 636.538C980.854 640.608 982.196 644.301 983.688 647.767C980.104 638.029 982.144 622.989 983.373 616.357Z" fill="#65AA8E"/>
<path d="M955.572 615.124C960.521 637.764 973.963 658.342 992.393 672.337C977.376 660.509 957.646 617.775 954.865 611.643C955.09 612.805 955.319 613.967 955.572 615.124Z" fill="#438267"/>
<path d="M463.156 399.192C463.156 399.192 455.579 427.229 437.219 429.564C418.859 431.898 408.476 462.269 408.476 462.269C408.476 462.269 392.533 502.096 349.867 476.192C307.201 450.288 324.992 406.031 335.214 397.017C345.436 388.003 393.898 398.369 404.565 383.772C415.233 369.174 469.296 369.492 463.156 399.192Z" fill="#3D383C"/>
<path d="M463.156 399.192C467.191 379.672 445.223 372.845 426.659 374.601C426.688 374.602 453.75 375.901 455.999 387.072C458.249 398.248 458.978 409.85 448.62 424.169C458.775 415.37 463.156 399.192 463.156 399.192Z" fill="#4F4B4E"/>
<path d="M608.256 544.163C608.256 544.163 623.692 529.635 633.68 529.635C643.668 529.635 651.537 525.398 651.537 525.398C651.537 525.398 660.617 517.832 665.763 521.766C665.763 521.766 671.055 524.92 654.667 534C654.667 534 653.159 539.637 655.818 537.504C660.647 533.632 680.291 507.54 680.291 507.54C680.291 507.54 677.567 526.306 670.909 538.715C664.251 551.124 658.802 563.533 611.284 562.021C611.283 562.021 601.9 553.243 608.256 544.163Z" fill="#ED8D43"/>
<path d="M660.667 549.611C658.156 551.615 656.416 554.09 655.258 556.192C664.271 551.694 667.425 545.205 670.908 538.714C677.567 526.305 680.291 507.539 680.291 507.539C680.291 507.539 666.167 545.222 660.667 549.611Z" fill="#F79857"/>
<path d="M608.256 544.163C586.918 555.059 517.759 565.652 517.759 565.652C517.759 565.652 500.195 559.742 466.911 522.068C433.627 484.394 403.351 505.47 403.351 505.47C387.612 515.508 397.903 547.491 403.351 557.177C408.799 566.863 463.884 614.078 495.362 609.236C538.643 616.651 612.796 572.31 612.796 572.31C616.428 555.513 608.256 544.163 608.256 544.163Z" fill="#BCD3FF"/>
<path d="M487.5 554.833C491 558.5 508.5 569.779 522.5 569.89C536.5 570.001 570.883 555.606 570.883 555.606H570.882C545.226 561.445 517.758 565.653 517.758 565.653C517.758 565.653 500.194 559.743 466.91 522.069C459.277 513.429 451.804 507.886 444.816 504.464C444.821 504.466 484 551.166 487.5 554.833Z" fill="#D2E3FF"/>
<path d="M976 369.302C971.6 369.302 968 365.702 968 361.302V324.502C968 320.102 971.6 316.502 976 316.502C980.4 316.502 984 320.102 984 324.502V361.302C984 365.702 980.4 369.302 976 369.302Z" stroke="white" stroke-miterlimit="10"/>
<path d="M976 603.302C971.6 603.302 968 599.701 968 595.302V558.502C968 554.102 971.6 550.502 976 550.502C980.4 550.502 984 554.102 984 558.502V595.302C984 599.701 980.4 603.302 976 603.302Z" stroke="white" stroke-miterlimit="10"/>
<path d="M197.03 362.829H160.109C154.549 362.829 150 358.28 150 352.72C150 347.16 154.549 342.611 160.109 342.611H197.03C202.59 342.611 207.139 347.16 207.139 352.72C207.139 358.28 202.59 362.829 197.03 362.829Z" fill="#F9CBAC"/>
<path d="M218.735 387.348H181.815C176.255 387.348 171.706 382.799 171.706 377.239C171.706 371.679 176.255 367.13 181.815 367.13H218.735C224.295 367.13 228.844 371.679 228.844 377.239C228.845 382.799 224.295 387.348 218.735 387.348Z" fill="#E2A379"/>
<path d="M260.891 362.829H223.97C218.41 362.829 213.861 358.28 213.861 352.72C213.861 347.16 218.41 342.611 223.97 342.611H260.891C266.451 342.611 271 347.16 271 352.72C271 358.28 266.451 362.829 260.891 362.829Z" fill="#F9CBAC"/>
<path d="M1196.97 458.234H1233.89C1239.45 458.234 1244 462.783 1244 468.343C1244 473.903 1239.45 478.452 1233.89 478.452H1196.97C1191.41 478.452 1186.86 473.903 1186.86 468.343C1186.86 462.783 1191.41 458.234 1196.97 458.234Z" fill="#F9CBAC"/>
<path d="M1175.27 433.715H1212.19C1217.75 433.715 1222.29 438.264 1222.29 443.824C1222.29 449.384 1217.75 453.933 1212.19 453.933H1175.27C1169.7 453.933 1165.16 449.384 1165.16 443.824C1165.16 438.264 1169.7 433.715 1175.27 433.715Z" fill="#E2A379"/>
<path d="M1133.11 458.234H1170.03C1175.59 458.234 1180.14 462.783 1180.14 468.343C1180.14 473.903 1175.59 478.452 1170.03 478.452H1133.11C1127.55 478.452 1123 473.903 1123 468.343C1123 462.783 1127.55 458.234 1133.11 458.234Z" fill="#F9CBAC"/>
<path d="M266.914 646.037C266.914 646.037 278.914 656.037 292.914 646.037V779.037C292.914 779.037 278.914 769.037 266.914 779.037V646.037Z" fill="#FFF6D9"/>
<path d="M293.414 782.037C291.481 782.037 289.914 780.47 289.914 778.537V644.537C289.914 642.603 291.481 641.037 293.414 641.037C295.347 641.037 296.914 642.603 296.914 644.537V778.537C296.914 780.47 295.346 782.037 293.414 782.037Z" fill="#47619A"/>
<path d="M266.414 782.037C264.481 782.037 262.914 780.47 262.914 778.537V644.537C262.914 642.603 264.481 641.037 266.414 641.037C268.347 641.037 269.914 642.603 269.914 644.537V778.537C269.914 780.47 268.346 782.037 266.414 782.037Z" fill="#47619A"/>
<path d="M300.781 645.547C300.781 645.547 312.781 655.547 326.781 645.547V778.547C326.781 778.547 312.781 768.547 300.781 778.547V645.547Z" fill="#FFF6D9"/>
<path d="M327.281 781.547C325.348 781.547 323.781 779.98 323.781 778.047V644.047C323.781 642.113 325.348 640.547 327.281 640.547C329.214 640.547 330.781 642.113 330.781 644.047V778.047C330.781 779.979 329.214 781.547 327.281 781.547Z" fill="#BCD3FF"/>
<path d="M300.281 781.547C298.348 781.547 296.781 779.98 296.781 778.047V644.047C296.781 642.113 298.348 640.547 300.281 640.547C302.214 640.547 303.781 642.113 303.781 644.047V778.047C303.781 779.979 302.214 781.547 300.281 781.547Z" fill="#BCD3FF"/>
<path d="M244.931 675.973C244.931 675.973 250.925 684.713 260.431 678.321L245.009 780.162C245.009 780.162 237.822 771.241 229.509 777.815L244.931 675.973Z" fill="#FFF6D9"/>
<path d="M244.958 782.504C243.806 782.329 243.013 781.254 243.187 780.102L258.905 676.307C259.079 675.155 260.155 674.363 261.307 674.536C262.459 674.711 263.252 675.786 263.078 676.938L247.36 780.733C247.187 781.886 246.111 782.679 244.958 782.504Z" fill="#C33A56"/>
<path d="M228.863 780.066C227.711 779.891 226.918 778.816 227.092 777.664L242.81 673.869C242.985 672.717 244.06 671.925 245.213 672.098C246.365 672.273 247.158 673.348 246.984 674.501L231.266 778.295C231.091 779.448 230.015 780.241 228.863 780.066Z" fill="#C13B54"/>
<path d="M868.14 359.471C900.768 359.471 927.218 333.021 927.218 300.393C927.218 267.765 900.768 241.315 868.14 241.315C835.512 241.315 809.062 267.765 809.062 300.393C809.062 333.021 835.512 359.471 868.14 359.471Z" fill="white"/>
<path d="M884.854 292.068C894.21 299.012 906.925 297.729 913.254 289.202C919.582 280.675 917.129 268.133 907.773 261.189C898.417 254.245 885.702 255.529 879.373 264.056C873.045 272.582 875.499 285.124 884.854 292.068Z" fill="#EDEDED"/>
<path d="M835.986 316.557C843.005 321.767 852.544 320.805 857.292 314.409C862.04 308.013 860.2 298.603 853.181 293.393C846.161 288.183 836.622 289.144 831.874 295.541C827.126 301.937 828.967 311.346 835.986 316.557Z" fill="#EDEDED"/>
<path d="M832.067 322.027C832.879 320.933 832.279 319.112 830.727 317.96C829.174 316.808 827.258 316.761 826.446 317.855C825.634 318.949 826.234 320.77 827.786 321.922C829.338 323.074 831.255 323.121 832.067 322.027Z" fill="#EDEDED"/>
<path d="M860.385 339.971C861.643 338.277 860.713 335.457 858.31 333.673C855.906 331.889 852.938 331.816 851.681 333.51C850.423 335.204 851.353 338.024 853.756 339.808C856.16 341.592 859.128 341.665 860.385 339.971Z" fill="#EDEDED"/>
<path d="M861.254 351.905C861.789 350.469 860.57 348.689 858.532 347.93C856.494 347.17 854.408 347.719 853.873 349.155C853.338 350.592 854.557 352.371 856.595 353.131C858.633 353.89 860.719 353.341 861.254 351.905Z" fill="#EDEDED"/>
<path d="M850.255 347.494C852.614 344.316 850.152 338.493 844.756 334.488C839.36 330.483 833.074 329.813 830.715 332.991C828.356 336.169 830.818 341.992 836.214 345.997C841.61 350.002 847.896 350.672 850.255 347.494Z" fill="#EDEDED"/>
<path d="M500.046 246.406C501.452 246.406 502.592 245.267 502.592 243.86C502.592 242.454 501.452 241.314 500.046 241.314C498.64 241.314 497.5 242.454 497.5 243.86C497.5 245.267 498.64 246.406 500.046 246.406Z" fill="white"/>
<path d="M767 246.406C768.406 246.406 769.546 245.267 769.546 243.86C769.546 242.454 768.406 241.314 767 241.314C765.594 241.314 764.454 242.454 764.454 243.86C764.454 245.267 765.594 246.406 767 246.406Z" fill="white"/>
<path d="M645.964 230.546C647.37 230.546 648.51 229.406 648.51 228C648.51 226.594 647.37 225.454 645.964 225.454C644.558 225.454 643.418 226.594 643.418 228C643.418 229.406 644.558 230.546 645.964 230.546Z" fill="white"/>
<path d="M578.454 246.406C579.86 246.406 581 245.267 581 243.86C581 242.454 579.86 241.314 578.454 241.314C577.048 241.314 575.908 242.454 575.908 243.86C575.908 245.267 577.048 246.406 578.454 246.406Z" fill="white"/>
<path d="M683.949 259.879C685.355 259.879 686.495 258.739 686.495 257.333C686.495 255.927 685.355 254.787 683.949 254.787C682.543 254.787 681.403 255.927 681.403 257.333C681.403 258.739 682.543 259.879 683.949 259.879Z" fill="white"/>
<path d="M633.787 276.963C635.193 276.963 636.333 275.823 636.333 274.417C636.333 273.01 635.193 271.871 633.787 271.871C632.381 271.871 631.241 273.01 631.241 274.417C631.241 275.823 632.381 276.963 633.787 276.963Z" fill="white"/>
<path d="M818.454 230.546C819.86 230.546 821 229.406 821 228C821 226.594 819.86 225.454 818.454 225.454C817.048 225.454 815.908 226.594 815.908 228C815.908 229.406 817.048 230.546 818.454 230.546Z" fill="white"/>
<path d="M755.787 276.963C757.193 276.963 758.333 275.823 758.333 274.417C758.333 273.01 757.193 271.871 755.787 271.871C754.381 271.871 753.241 273.01 753.241 274.417C753.241 275.823 754.381 276.963 755.787 276.963Z" fill="white"/>
<path d="M958.114 290.666C959.52 290.666 960.66 289.526 960.66 288.12C960.66 286.714 959.52 285.574 958.114 285.574C956.708 285.574 955.568 286.714 955.568 288.12C955.568 289.526 956.708 290.666 958.114 290.666Z" fill="white"/>
<path d="M680.667 320.213C682.073 320.213 683.213 319.073 683.213 317.667C683.213 316.26 682.073 315.121 680.667 315.121C679.261 315.121 678.121 316.26 678.121 317.667C678.121 319.073 679.261 320.213 680.667 320.213Z" fill="white"/>
<path d="M792 404.213C793.406 404.213 794.546 403.073 794.546 401.667C794.546 400.26 793.406 399.121 792 399.121C790.594 399.121 789.454 400.26 789.454 401.667C789.454 403.073 790.594 404.213 792 404.213Z" fill="white"/>
<path d="M538.333 440.133C539.739 440.133 540.879 438.993 540.879 437.587C540.879 436.18 539.739 435.041 538.333 435.041C536.927 435.041 535.787 436.18 535.787 437.587C535.787 438.993 536.927 440.133 538.333 440.133Z" fill="white"/>
<path d="M802.5 511.562C803.906 511.562 805.046 510.422 805.046 509.016C805.046 507.61 803.906 506.47 802.5 506.47C801.094 506.47 799.954 507.61 799.954 509.016C799.954 510.422 801.094 511.562 802.5 511.562Z" fill="white"/>
<path d="M931.787 615.879C933.193 615.879 934.333 614.739 934.333 613.333C934.333 611.927 933.193 610.787 931.787 610.787C930.381 610.787 929.241 611.927 929.241 613.333C929.241 614.739 930.381 615.879 931.787 615.879Z" fill="white"/>
<path d="M805.697 647.703C807.103 647.703 808.243 646.563 808.243 645.157C808.243 643.751 807.103 642.611 805.697 642.611C804.291 642.611 803.151 643.751 803.151 645.157C803.151 646.563 804.291 647.703 805.697 647.703Z" fill="white"/>
<path d="M574 281.583C575.979 281.583 577.583 279.978 577.583 278C577.583 276.021 575.979 274.417 574 274.417C572.021 274.417 570.417 276.021 570.417 278C570.417 279.978 572.021 281.583 574 281.583Z" fill="white"/>
<path d="M500.046 395.583C502.025 395.583 503.629 393.978 503.629 392C503.629 390.021 502.025 388.417 500.046 388.417C498.067 388.417 496.463 390.021 496.463 392C496.463 393.978 498.067 395.583 500.046 395.583Z" fill="white"/>
<path d="M644.273 380.915C646.252 380.915 647.856 379.311 647.856 377.333C647.856 375.354 646.252 373.75 644.273 373.75C642.294 373.75 640.69 375.354 640.69 377.333C640.69 379.311 642.294 380.915 644.273 380.915Z" fill="white"/>
<path d="M927.218 446.315C929.197 446.315 930.801 444.711 930.801 442.732C930.801 440.754 929.197 439.149 927.218 439.149C925.239 439.149 923.635 440.754 923.635 442.732C923.635 444.711 925.239 446.315 927.218 446.315Z" fill="white"/>
<path d="M954.531 244.896C956.51 244.896 958.114 243.292 958.114 241.313C958.114 239.335 956.51 237.73 954.531 237.73C952.552 237.73 950.948 239.335 950.948 241.313C950.948 243.292 952.552 244.896 954.531 244.896Z" fill="white"/>
<path d="M532.583 510.052C534.562 510.052 536.166 508.448 536.166 506.469C536.166 504.49 534.562 502.886 532.583 502.886C530.604 502.886 529 504.49 529 506.469C529 508.448 530.604 510.052 532.583 510.052Z" fill="white"/>
<path d="M692.198 573.473C694.177 573.473 695.781 571.868 695.781 569.89C695.781 567.911 694.177 566.307 692.198 566.307C690.219 566.307 688.615 567.911 688.615 569.89C688.615 571.868 690.219 573.473 692.198 573.473Z" fill="white"/>
<path d="M954.531 515.145C956.51 515.145 958.114 513.54 958.114 511.562C958.114 509.583 956.51 507.979 954.531 507.979C952.552 507.979 950.948 509.583 950.948 511.562C950.948 513.54 952.552 515.145 954.531 515.145Z" fill="white"/>
<path d="M837.667 558.172C839.646 558.172 841.25 556.568 841.25 554.589C841.25 552.61 839.646 551.006 837.667 551.006C835.688 551.006 834.084 552.61 834.084 554.589C834.084 556.568 835.688 558.172 837.667 558.172Z" fill="white"/>
<path d="M769.546 580.483C771.525 580.483 773.129 578.879 773.129 576.9C773.129 574.922 771.525 573.317 769.546 573.317C767.567 573.317 765.963 574.922 765.963 576.9C765.963 578.879 767.567 580.483 769.546 580.483Z" fill="white"/>
<path d="M603.716 529.332C598.437 534.116 577.963 545.733 560.426 555.314L606.047 533.125C604.866 530.267 603.716 529.332 603.716 529.332Z" fill="#8EA5DD"/>
<path d="M770.57 681.109C770.57 681.109 804 711.667 827 719.333C850 727 859.847 726.407 859.847 726.407C859.251 726.289 858.627 726.175 857.955 726.065C834.382 722.228 780.522 687.607 770.57 681.109Z" fill="#F79857"/>
<path d="M288.372 172.808C265.578 152.29 195.265 140.952 221.902 165.241C214.608 167.295 169.426 169.221 195.195 181.63C189.129 183.331 125.455 203.876 158.353 209.038C151.419 212.299 108.531 232.22 135.208 233.889C129.477 236.816 101.692 249.871 105.296 258.028C109.253 267.401 133.724 256.576 141.015 254.533C126.713 278.216 186.588 253.511 195.964 249.561C195.436 252.327 196.463 255.974 196.271 259.966C213.418 260.374 229.247 246.751 241.771 235.362C243.899 266.216 274.556 226.134 279.787 216.799C286.089 201.921 288.884 191.578 288.372 172.808Z" fill="#C13B54"/>
<path d="M358.982 101.692C348.466 120.679 334.694 137.89 319.063 153.129C303.298 168.337 285.192 180.705 266.193 191.505C227.986 212.31 187.098 226.937 146.883 242.689C146.743 242.742 146.583 242.671 146.529 242.531C146.472 242.396 146.539 242.237 146.675 242.178C186.313 224.95 226.698 209.122 264.071 187.647C282.349 176.571 299.463 163.418 315.308 149.103C331.32 134.867 345.4 118.593 358.528 101.387C358.62 101.267 358.792 101.243 358.914 101.333C359.021 101.42 359.046 101.578 358.982 101.692Z" fill="#30602C"/>
<path d="M159.598 220.763C163.08 219.859 166.55 219.225 170.04 218.415C173.535 217.75 177.055 217.135 180.626 216.732C187.749 215.886 195.107 215.726 202.441 217.096C203.92 217.362 204.907 218.774 204.643 220.251C204.563 220.697 204.358 221.126 204.103 221.456C199.67 227.1 194.425 231.738 188.926 235.889C186.187 237.985 183.348 239.919 180.491 241.806C177.553 243.601 174.732 245.507 171.719 247.212C180.84 236.864 191.786 228.43 199.741 218.126L201.406 222.486C194.8 221.204 187.874 221.069 180.883 221.053L170.304 221.131C166.747 221.013 163.175 221.118 159.598 220.763Z" fill="#30602C"/>
<path d="M195.995 198.714C203.667 198.206 211.233 197.206 218.934 197.017C222.781 196.83 226.643 196.9 230.563 197.071C234.493 197.418 238.406 197.677 242.652 199.409C243.977 199.949 244.631 201.441 244.14 202.772L244.109 202.858C241.484 209.962 237.542 216.832 232.173 222.272C229.546 225.027 226.641 227.4 223.755 229.689C220.782 231.895 217.984 234.204 215.13 236.59C217.058 233.397 219.576 230.613 221.929 227.77C224.379 225.007 226.783 222.297 228.964 219.494C233.305 213.874 236.58 207.659 238.958 200.968L240.415 204.417C237.573 203.204 233.761 202.676 230.122 202.293C226.431 201.822 222.651 201.668 218.867 201.346C215.074 201.096 211.26 200.808 207.435 200.461C203.617 199.961 199.758 199.669 195.995 198.714Z" fill="#30602C"/>
<path d="M234.547 177.114C241.364 176.448 248.213 176.869 254.948 177.66C261.694 178.434 268.348 179.682 274.917 180.973C276.396 181.255 277.368 182.685 277.085 184.167L277.037 184.378C275.352 190.526 272.677 196.542 269.34 201.848C266.05 207.181 262.7 212.27 259.289 217.577C260.657 211.433 263.109 205.542 265.625 199.914C268.129 194.282 270.262 188.784 271.766 182.936L273.886 186.341C260.565 183.766 247.766 180.402 234.547 177.114Z" fill="#30602C"/>
<path d="M188.362 396.123C197.316 388.063 224.934 383.61 214.471 393.151C217.336 393.958 235.083 394.714 224.961 399.589C227.344 400.257 252.355 408.327 239.432 410.355C242.156 411.636 259.002 419.461 248.523 420.116C250.774 421.266 261.688 426.394 260.273 429.598C258.719 433.28 249.106 429.028 246.243 428.225C251.861 437.527 228.342 427.824 224.66 426.272C224.868 427.358 224.464 428.791 224.539 430.359C217.804 430.519 211.587 425.168 206.667 420.694C205.831 432.814 193.789 417.069 191.734 413.402C189.259 407.559 188.162 403.496 188.362 396.123Z" fill="#C13B54"/>
<path d="M160.627 368.189C164.758 375.647 170.168 382.407 176.308 388.393C182.5 394.367 189.612 399.225 197.075 403.467C212.082 411.639 228.143 417.384 243.939 423.572C243.994 423.593 244.057 423.565 244.078 423.51C244.1 423.457 244.074 423.394 244.021 423.371C228.452 416.604 212.588 410.387 197.908 401.952C190.729 397.601 184.007 392.435 177.783 386.812C171.493 381.22 165.963 374.828 160.806 368.069C160.769 368.022 160.702 368.012 160.654 368.048C160.612 368.083 160.602 368.145 160.627 368.189Z" fill="#30602C"/>
<path d="M238.944 414.958C237.576 414.603 236.214 414.354 234.842 414.036C233.469 413.775 232.086 413.534 230.683 413.375C227.886 413.042 224.995 412.98 222.115 413.518C221.534 413.622 221.146 414.177 221.25 414.757C221.281 414.932 221.361 415.101 221.462 415.23C223.203 417.447 225.263 419.269 227.423 420.899C228.499 421.723 229.614 422.482 230.736 423.224C231.89 423.929 232.998 424.678 234.181 425.347C230.598 421.283 226.299 417.97 223.174 413.923L222.52 415.635C225.115 415.131 227.835 415.078 230.582 415.073L234.738 415.103C236.136 415.057 237.539 415.098 238.944 414.958Z" fill="#30602C"/>
<path d="M224.647 406.299C221.633 406.099 218.662 405.707 215.637 405.632C214.126 405.558 212.609 405.586 211.069 405.653C209.525 405.789 207.988 405.891 206.32 406.571C205.799 406.783 205.543 407.369 205.736 407.892L205.748 407.926C206.779 410.717 208.328 413.415 210.436 415.551C211.468 416.634 212.609 417.565 213.743 418.465C214.911 419.331 216.01 420.238 217.131 421.175C216.374 419.921 215.385 418.827 214.461 417.711C213.499 416.626 212.554 415.561 211.698 414.46C209.992 412.252 208.706 409.811 207.773 407.183L207.201 408.538C208.317 408.061 209.815 407.854 211.244 407.704C212.694 407.519 214.179 407.458 215.665 407.332C217.155 407.234 218.653 407.121 220.156 406.984C221.654 406.789 223.169 406.674 224.647 406.299Z" fill="#30602C"/>
<path d="M209.504 397.814C206.826 397.552 204.136 397.718 201.491 398.029C198.841 398.333 196.227 398.823 193.647 399.33C193.066 399.441 192.684 400.003 192.795 400.584L192.814 400.667C193.476 403.082 194.527 405.445 195.837 407.529C197.129 409.624 198.445 411.623 199.785 413.707C199.247 411.294 198.285 408.98 197.296 406.769C196.312 404.557 195.474 402.397 194.883 400.1L194.051 401.437C199.285 400.427 204.312 399.106 209.504 397.814Z" fill="#30602C"/>
<path d="M1173.72 434.092C1186.17 422.884 1224.58 416.692 1210.03 429.959C1214.01 431.081 1238.69 432.133 1224.62 438.911C1227.93 439.84 1262.71 451.062 1244.74 453.882C1248.53 455.663 1271.96 466.545 1257.38 467.456C1260.51 469.055 1275.69 476.186 1273.72 480.642C1271.56 485.762 1258.2 479.849 1254.21 478.733C1262.02 491.669 1229.32 478.174 1224.2 476.017C1224.49 477.527 1223.93 479.52 1224.03 481.701C1214.66 481.923 1206.02 474.482 1199.18 468.262C1198.01 485.115 1181.27 463.221 1178.41 458.122C1174.97 449.995 1173.44 444.345 1173.72 434.092Z" fill="#C13B54"/>
<path d="M1135.15 395.247C1140.9 405.619 1148.42 415.019 1156.96 423.343C1165.57 431.65 1175.46 438.406 1185.84 444.305C1206.71 455.669 1229.04 463.659 1251.01 472.263C1251.08 472.291 1251.17 472.253 1251.2 472.177C1251.23 472.103 1251.19 472.016 1251.12 471.984C1229.47 462.574 1207.41 453.928 1187 442.198C1177.01 436.148 1167.66 428.963 1159.01 421.144C1150.26 413.368 1142.57 404.479 1135.4 395.081C1135.35 395.016 1135.26 395.002 1135.19 395.052C1135.13 395.099 1135.12 395.185 1135.15 395.247Z" fill="#30602C"/>
<path d="M1244.06 460.287C1242.16 459.793 1240.26 459.447 1238.36 459.005C1236.45 458.642 1234.53 458.306 1232.58 458.086C1228.68 457.624 1224.67 457.537 1220.66 458.285C1219.85 458.43 1219.31 459.202 1219.46 460.008C1219.5 460.252 1219.61 460.486 1219.75 460.666C1222.17 463.749 1225.04 466.282 1228.04 468.549C1229.54 469.695 1231.09 470.751 1232.65 471.781C1234.25 472.761 1235.79 473.803 1237.44 474.734C1232.46 469.082 1226.48 464.475 1222.13 458.847L1221.22 461.229C1224.83 460.528 1228.62 460.455 1232.43 460.446L1238.21 460.488C1240.16 460.423 1242.11 460.48 1244.06 460.287Z" fill="#30602C"/>
<path d="M1224.18 448.243C1219.99 447.965 1215.86 447.419 1211.65 447.316C1209.55 447.214 1207.44 447.252 1205.3 447.345C1203.15 447.534 1201.01 447.676 1198.69 448.622C1197.97 448.917 1197.61 449.732 1197.88 450.459L1197.9 450.506C1199.33 454.386 1201.49 458.139 1204.42 461.11C1205.85 462.615 1207.44 463.911 1209.02 465.161C1210.64 466.366 1212.17 467.627 1213.73 468.931C1212.68 467.187 1211.3 465.667 1210.02 464.113C1208.68 462.604 1207.36 461.124 1206.17 459.592C1203.8 456.522 1202.01 453.128 1200.71 449.473L1199.92 451.357C1201.47 450.694 1203.55 450.406 1205.54 450.197C1207.56 449.94 1209.62 449.856 1211.69 449.68C1213.76 449.543 1215.84 449.386 1217.93 449.197C1220.02 448.924 1222.12 448.765 1224.18 448.243Z" fill="#30602C"/>
<path d="M1203.12 436.443C1199.4 436.079 1195.66 436.309 1191.98 436.742C1188.29 437.164 1184.66 437.846 1181.07 438.552C1180.26 438.706 1179.73 439.488 1179.89 440.297L1179.91 440.412C1180.83 443.77 1182.29 447.057 1184.12 449.954C1185.91 452.868 1187.74 455.647 1189.61 458.546C1188.86 455.191 1187.52 451.972 1186.14 448.899C1184.78 445.822 1183.61 442.819 1182.79 439.625L1181.63 441.485C1188.91 440.077 1195.9 438.24 1203.12 436.443Z" fill="#30602C"/>
<path d="M767.85 215.709C769.698 199.059 794.266 168.896 792.22 188.48C795.942 186.668 815.074 171.044 809.069 185.466C812.162 183.957 845.601 169.213 834.054 183.267C838.067 182.079 862.8 174.63 852.523 185C855.923 184.113 872.002 179.348 873.494 183.984C875.284 189.245 861.368 193.717 857.651 195.531C872.089 199.998 838.687 211.665 833.427 213.46C834.647 214.396 835.553 216.257 837.08 217.816C830.232 224.21 818.827 224.401 809.581 224.303C819.919 237.664 792.853 232.446 787.329 230.537C779.354 226.758 774.458 223.553 767.85 215.709Z" fill="#C13B54"/>
<path d="M713.213 212.34C724.4 216.267 736.269 218.287 748.181 218.827C760.136 219.306 772.015 217.776 783.69 215.282C806.834 209.894 828.828 201.01 850.957 192.831C851.032 192.802 851.072 192.715 851.044 192.638C851.019 192.562 850.933 192.522 850.856 192.547C828.427 199.915 806.202 208.125 783.155 212.937C771.675 215.057 759.916 215.905 748.252 215.821C736.549 215.828 724.894 214.303 713.289 212.051C713.207 212.035 713.129 212.088 713.112 212.169C713.098 212.243 713.145 212.317 713.213 212.34Z" fill="#30602C"/>
<path d="M837.805 188.503C836.055 189.399 834.409 190.4 832.692 191.338C831.025 192.336 829.365 193.363 827.761 194.496C824.548 196.738 821.488 199.346 818.993 202.568C818.486 203.214 818.597 204.149 819.24 204.655C819.435 204.808 819.675 204.908 819.898 204.95C823.756 205.643 827.581 205.63 831.332 205.326C833.211 205.187 835.071 204.945 836.923 204.677C838.774 204.343 840.616 204.095 842.465 203.697C834.986 202.788 827.456 203.323 820.469 202.008L821.373 204.392C823.602 201.469 826.379 198.899 829.226 196.353L833.571 192.542C834.979 191.202 836.474 189.948 837.805 188.503Z" fill="#30602C"/>
<path d="M814.946 192.728C811.632 195.307 808.182 197.647 804.971 200.367C803.333 201.688 801.783 203.119 800.245 204.613C798.767 206.182 797.266 207.709 796.162 209.958C795.818 210.66 796.093 211.506 796.777 211.871L796.821 211.894C800.472 213.839 804.575 215.21 808.741 215.48C810.814 215.65 812.861 215.563 814.87 215.448C816.884 215.268 818.864 215.194 820.895 215.131C818.948 214.528 816.911 214.307 814.917 214.002C812.914 213.765 810.948 213.532 809.041 213.181C805.229 212.465 801.636 211.119 798.235 209.252L798.893 211.189C799.612 209.662 800.976 208.062 802.322 206.584C803.656 205.052 805.142 203.616 806.57 202.11C808.026 200.63 809.478 199.128 810.912 197.597C812.29 196.004 813.758 194.483 814.946 192.728Z" fill="#30602C"/>
<path d="M791.373 197.917C788.35 200.122 785.708 202.781 783.248 205.55C780.776 208.316 778.516 211.242 776.305 214.154C775.804 214.806 775.927 215.742 776.58 216.244L776.676 216.313C779.597 218.209 782.873 219.692 786.161 220.645C789.44 221.626 792.655 222.485 795.974 223.412C793.185 221.402 790.044 219.89 786.974 218.507C783.907 217.118 781.039 215.651 778.302 213.811L778.674 215.97C783.174 210.081 787.174 204.059 791.373 197.917Z" fill="#30602C"/>
<path d="M882.9 821.411C870.18 821.523 857.343 821.707 844.951 824.581C830.48 827.936 817.118 834.84 803.93 841.677C788.184 849.841 772.439 858.005 756.693 866.169C743.746 872.882 729.601 880.982 725.387 894.944C723.473 901.284 724.181 908.806 728.756 913.595C731.268 916.224 734.689 917.806 738.164 918.876C755.972 924.361 775.253 917.579 791.502 908.459C807.752 899.339 822.898 887.696 840.731 882.289C893.006 866.436 950.799 914.481 1000.24 890.382C1003.25 888.913 1006.26 887.054 1007.94 884.157C1009.47 881.538 1009.73 878.394 1009.88 875.368C1010.56 862.011 1011.7 853.72 1002.79 844.654C994.098 835.818 976.247 831.348 964.667 828.319C938.105 821.372 910.174 821.17 882.9 821.411Z" fill="#F3EDF1"/>
<path d="M505.517 120.333C487.706 134.116 474.005 155.211 452.1 160.446C443.618 162.473 434.349 161.925 426.693 166.102C419.037 170.278 414.932 182.482 422.106 187.439C423.768 188.587 425.762 189.139 427.732 189.581C448.186 194.178 470.682 188.52 486.528 174.795C495.357 167.148 502.14 157.253 511.525 150.297C523.4 141.496 538.447 138.145 553.159 136.732C560.969 135.982 568.989 135.678 576.26 132.729C583.531 129.78 590.06 123.45 590.606 115.624C592.876 83.0906 517.535 111.032 505.517 120.333Z" fill="#F3EDF1"/>
</svg>
