<svg width="50" height="50" viewBox="0 0 50 50" fill="none" xmlns="http://www.w3.org/2000/svg">
<path d="M6.51279 4.58193L5.05312 6.04159C4.78619 6.30853 4.35346 6.30853 4.08662 6.04159L2.62696 4.58193C2.36002 4.31499 2.36002 3.88227 2.62696 3.61543L4.08662 2.15577C4.35356 1.88883 4.78628 1.88883 5.05312 2.15577L6.51279 3.61543C6.77963 3.88227 6.77963 4.31509 6.51279 4.58193Z" fill="#FCD1E8"/>
<path d="M49.7997 21.1498L48.3401 22.6095C48.0732 22.8764 47.6404 22.8764 47.3735 22.6095L45.9138 21.1498C45.6469 20.8829 45.6469 20.4501 45.9138 20.1833L47.3735 18.7236C47.6404 18.4567 48.0732 18.4567 48.3401 18.7236L49.7997 20.1833C50.0666 20.4501 50.0666 20.8829 49.7997 21.1498Z" fill="#FCD1E8"/>
<path d="M15.5478 36.1938L14.0881 37.6535C13.8212 37.9204 13.3885 37.9204 13.1215 37.6535L11.6619 36.1938C11.3949 35.9269 11.3949 35.4942 11.6619 35.2272L13.1215 33.7676C13.3885 33.5006 13.8212 33.5006 14.0881 33.7676L15.5478 35.2272C15.8147 35.4943 15.8147 35.927 15.5478 36.1938Z" fill="#FCD1E8"/>
<path d="M37.1821 20.4468L37.8426 21.785C37.9262 21.9546 38.0881 22.0723 38.2753 22.0994L39.7521 22.314C40.2235 22.3826 40.4118 22.9618 40.0706 23.2943L39.002 24.336C38.8666 24.468 38.8048 24.6583 38.8367 24.8447L39.089 26.3156C39.1695 26.7851 38.6768 27.1431 38.2551 26.9214L36.9341 26.2269C36.7667 26.1388 36.5666 26.1388 36.3993 26.2269L35.0784 26.9214C34.6568 27.143 34.1639 26.785 34.2445 26.3156L34.4968 24.8447C34.5288 24.6582 34.4669 24.468 34.3315 24.336L33.2628 23.2943C32.9217 22.9617 33.1099 22.3825 33.5813 22.314L35.0582 22.0994C35.2453 22.0722 35.4072 21.9546 35.4909 21.785L36.1513 20.4468C36.3622 20.0197 36.9712 20.0197 37.1821 20.4468V20.4468Z" fill="#FEE97D"/>
<path d="M23.7354 40.2872L24.3958 41.6254C24.4795 41.795 24.6413 41.9126 24.8285 41.9398L26.3054 42.1544C26.7767 42.2229 26.965 42.8022 26.6238 43.1346L25.5552 44.1763C25.4198 44.3083 25.358 44.4986 25.3899 44.685L25.6422 46.1559C25.7228 46.6254 25.2299 46.9834 24.8083 46.7617L23.4874 46.0672C23.3199 45.9792 23.1199 45.9792 22.9525 46.0672L21.6316 46.7617C21.21 46.9833 20.7171 46.6253 20.7977 46.1559L21.05 44.685C21.082 44.4985 21.0201 44.3083 20.8847 44.1763L19.8161 43.1346C19.4749 42.8021 19.6632 42.2228 20.1345 42.1544L21.6114 41.9398C21.7986 41.9125 21.9604 41.795 22.0441 41.6254L22.7045 40.2872C22.9154 39.86 23.5246 39.86 23.7354 40.2872V40.2872Z" fill="#FEE97D"/>
<path d="M14.5479 20.4468L15.2083 21.785C15.292 21.9546 15.4538 22.0723 15.641 22.0994L17.1178 22.314C17.5892 22.3826 17.7775 22.9618 17.4363 23.2943L16.3677 24.336C16.2323 24.468 16.1705 24.6583 16.2024 24.8447L16.4547 26.3156C16.5352 26.7851 16.0425 27.1431 15.6208 26.9214L14.2999 26.2269C14.1324 26.1388 13.9324 26.1388 13.765 26.2269L12.4441 26.9214C12.0225 27.143 11.5296 26.785 11.6102 26.3156L11.8625 24.8447C11.8945 24.6582 11.8326 24.468 11.6972 24.336L10.6286 23.2943C10.2874 22.9617 10.4757 22.3825 10.947 22.314L12.4239 22.0994C12.6111 22.0722 12.7729 21.9546 12.8566 21.785L13.517 20.4468C13.7279 20.0197 14.337 20.0197 14.5479 20.4468V20.4468Z" fill="#FEE97D"/>
<path d="M24.3711 32.3489C23.9321 32.3489 23.493 32.1815 23.158 31.8464C22.4881 31.1763 22.4881 30.0901 23.1581 29.4202C23.5684 29.01 23.7943 28.4645 23.7943 27.8842C23.7943 27.304 23.5684 26.7585 23.1581 26.3482C22.0997 25.2898 21.5169 23.8827 21.5169 22.386C21.5169 20.8893 22.0998 19.4821 23.1581 18.4238C24.005 17.5769 24.005 16.1987 23.158 15.3518C22.0997 14.2935 21.5168 12.8864 21.5168 11.3896C21.5168 9.89298 22.0996 8.48584 23.158 7.42747C23.5683 7.0172 23.7943 6.47171 23.7943 5.89145C23.7943 5.3112 23.5684 4.76571 23.1581 4.35544C22.4881 3.68556 22.4881 2.59936 23.158 1.92928C23.8281 1.2594 24.9142 1.2591 25.5843 1.92928C26.6427 2.98756 27.2254 4.39469 27.2254 5.89145C27.2254 7.38822 26.6426 8.79535 25.5843 9.85363C25.174 10.264 24.9481 10.8095 24.9481 11.3896C24.9481 11.9699 25.174 12.5154 25.5843 12.9257C27.769 15.1105 27.769 18.6653 25.5844 20.85C25.1741 21.2603 24.9481 21.8058 24.9481 22.386C24.9481 22.9662 25.174 23.5117 25.5844 23.922C26.6426 24.9803 27.2255 26.3874 27.2255 27.8842C27.2255 29.381 26.6426 30.7881 25.5844 31.8464C25.2492 32.1814 24.8101 32.3489 24.3711 32.3489V32.3489Z" fill="#8AC9FE"/>
<path d="M25.1808 29.42C24.5111 30.0898 24.5111 31.1764 25.1808 31.8462C25.2446 31.91 25.3114 31.9677 25.3822 32.0192C25.0816 32.2388 24.7256 32.349 24.3705 32.349C23.9314 32.349 23.4923 32.1811 23.1574 31.8462C22.4876 31.1764 22.4876 30.0898 23.1574 29.42C23.5682 29.0103 23.7938 28.464 23.7938 27.8842C23.7938 27.3035 23.5682 26.7582 23.1574 26.3484C22.0991 25.2901 21.5164 23.8828 21.5164 22.3864C21.5164 20.8891 22.0991 19.4817 23.1574 18.4235C24.0042 17.5767 24.0042 16.1986 23.1574 15.3518C22.0991 14.2936 21.5164 12.8862 21.5164 11.3898C21.5164 9.8925 22.0991 8.48615 23.1574 7.42787C23.5682 7.01711 23.7938 6.47181 23.7938 5.89107C23.7938 5.31131 23.5682 4.76601 23.1574 4.35526C22.4876 3.68547 22.4876 2.59888 23.1574 1.92909C23.7644 1.32307 24.7114 1.26536 25.3823 1.75608C25.3125 1.80763 25.2447 1.86534 25.1809 1.92909C24.5112 2.59888 24.5112 3.68547 25.1809 4.35526C25.5917 4.76601 25.8173 5.31131 25.8173 5.89107C25.8173 6.47181 25.5917 7.01711 25.1809 7.42787C24.1227 8.48615 23.5399 9.8924 23.5399 11.3898C23.5399 12.8862 24.1227 14.2936 25.1809 15.3518C26.0277 16.1986 26.0277 17.5766 25.1809 18.4235C24.1227 19.4817 23.5399 20.8891 23.5399 22.3864C23.5399 23.8828 24.1227 25.2901 25.1809 26.3484C25.5917 26.7582 25.8173 27.3035 25.8173 27.8842C25.8172 28.464 25.5916 29.0104 25.1808 29.42V29.42Z" fill="#60B7FF"/>
<path d="M4.56987 33.5205C4.1308 33.5205 3.69183 33.3531 3.35684 33.018C2.68686 32.3481 2.68686 31.2619 3.35674 30.5918C4.20374 29.7448 4.20374 28.3667 3.35674 27.5198C2.29846 26.4615 1.71558 25.0544 1.71558 23.5576C1.71558 22.0609 2.29837 20.6538 3.35674 19.5954C3.76701 19.1852 3.99304 18.6397 3.99304 18.0594C3.99304 17.4792 3.76711 16.9337 3.35684 16.5234C2.68686 15.8535 2.68686 14.7673 3.35674 14.0972C4.02682 13.4274 5.11293 13.4271 5.783 14.0972C6.84138 15.1555 7.42417 16.5627 7.42417 18.0594C7.42417 19.5562 6.84128 20.9633 5.783 22.0216C5.37274 22.432 5.14681 22.9775 5.14681 23.5576C5.14681 24.1379 5.37274 24.6834 5.783 25.0936C7.96771 27.2784 7.96771 30.8333 5.7831 33.018C5.44801 33.353 5.00894 33.5205 4.56987 33.5205V33.5205Z" fill="#97DA7B"/>
<path d="M5.38055 30.5919C4.71076 31.2617 4.71076 32.3483 5.38055 33.0181C5.4443 33.0809 5.51109 33.1385 5.58187 33.1901C5.28242 33.4107 4.92625 33.5209 4.57017 33.5209C4.1311 33.5209 3.69203 33.353 3.35713 33.0181C2.68735 32.3483 2.68735 31.2617 3.35713 30.5919C4.20393 29.7451 4.20393 28.3671 3.35713 27.5203C2.29885 26.462 1.71606 25.0547 1.71606 23.5573C1.71606 22.061 2.29885 20.6536 3.35713 19.5954C3.76691 19.1856 3.99353 18.6403 3.99353 18.0595C3.99353 17.4798 3.76691 16.9335 3.35713 16.5237C2.68735 15.8539 2.68735 14.7673 3.35713 14.0976C3.96316 13.4915 4.91014 13.4338 5.58197 13.9245C5.51216 13.9761 5.4444 14.0338 5.38064 14.0976C4.71086 14.7673 4.71086 15.8539 5.38064 16.5237C5.79042 16.9335 6.01704 17.4798 6.01704 18.0595C6.01704 18.6403 5.79042 19.1856 5.38064 19.5954C4.32237 20.6536 3.73957 22.061 3.73957 23.5573C3.73957 25.0547 4.32237 26.462 5.38064 27.5203C6.22735 28.3671 6.22735 29.745 5.38055 30.5919Z" fill="#80D261"/>
<path d="M40.7259 16.8876C40.2868 16.8876 39.8477 16.7201 39.5127 16.385C38.4544 15.3266 37.8716 13.9195 37.8716 12.4228C37.8716 10.9261 38.4545 9.51895 39.5127 8.46067C40.3596 7.61368 40.3596 6.23554 39.5127 5.38864C38.8428 4.71857 38.8428 3.63236 39.5127 2.96248C40.1828 2.2926 41.269 2.29231 41.939 2.96248C44.1237 5.14729 44.1237 8.70213 41.939 10.8868C41.5287 11.2971 41.3027 11.8426 41.3027 12.4228C41.3027 13.003 41.5286 13.5485 41.939 13.9589C42.6089 14.6289 42.6089 15.7151 41.9389 16.385C41.604 16.72 41.1649 16.8876 40.7259 16.8876V16.8876Z" fill="#F07281"/>
<path d="M41.5366 16.3848C41.6003 16.4485 41.6671 16.5061 41.7379 16.5578C41.4374 16.7783 41.0813 16.8876 40.7262 16.8876C40.2871 16.8876 39.848 16.7206 39.5131 16.3848C38.4549 15.3265 37.8721 13.9201 37.8721 12.4228C37.8721 10.9264 38.4549 9.5191 39.5131 8.46082C40.3599 7.61402 40.3599 6.23598 39.5131 5.38918C38.8424 4.71842 38.8424 3.63281 39.5131 2.96302C40.1192 2.35602 41.0661 2.29831 41.738 2.79001C41.6682 2.84156 41.6004 2.89926 41.5367 2.96302C40.8659 3.63281 40.8659 4.71842 41.5367 5.38918C42.3834 6.23598 42.3834 7.61402 41.5367 8.46082C40.4784 9.5191 39.8956 10.9264 39.8956 12.4228C39.8955 13.9201 40.4783 15.3265 41.5366 16.3848Z" fill="#EB5569"/>
<path d="M43.5789 42.9242C43.1398 42.9242 42.7008 42.7567 42.3658 42.4216C41.3074 41.3633 40.7246 39.9561 40.7246 38.4595C40.7246 36.9627 41.3075 35.5556 42.3658 34.4973C43.2127 33.6503 43.2127 32.2722 42.3657 31.4253C41.6958 30.7552 41.6958 29.669 42.3658 28.9991C43.0359 28.3292 44.1221 28.3289 44.792 28.9991C46.9767 31.1839 46.9767 34.7387 44.792 36.9235C44.3818 37.3337 44.1557 37.8792 44.1557 38.4595C44.1557 39.0396 44.3817 39.5851 44.792 39.9955C45.4619 40.6656 45.4619 41.7518 44.7919 42.4216C44.457 42.7566 44.0179 42.9242 43.5789 42.9242V42.9242Z" fill="#FCD1E8"/>
<path d="M44.3887 42.4221C44.4525 42.4859 44.5202 42.5435 44.591 42.5952C44.2905 42.8147 43.9344 42.925 43.5793 42.925C43.1402 42.925 42.7012 42.757 42.3652 42.4221C41.3069 41.3639 40.7241 39.9565 40.7241 38.4602C40.7241 36.9628 41.3069 35.5555 42.3662 34.4972C43.213 33.6504 43.213 32.2724 42.3652 31.4256C41.6954 30.7558 41.6954 29.6692 42.3662 28.9994C42.9722 28.3934 43.9192 28.3357 44.591 28.8264C44.5212 28.8779 44.4534 28.9357 44.3897 28.9994C43.7189 29.6692 43.7189 30.7558 44.3887 31.4256C45.2366 32.2724 45.2366 33.6504 44.3897 34.4972C43.3304 35.5555 42.7476 36.9628 42.7476 38.4602C42.7476 39.9565 43.3304 41.3639 44.3887 42.4221V42.4221Z" fill="#F6C2E0"/>
<path d="M13.6047 12.9385C14.5522 12.9385 15.3203 12.1704 15.3203 11.2229C15.3203 10.2754 14.5522 9.50732 13.6047 9.50732C12.6572 9.50732 11.8892 10.2754 11.8892 11.2229C11.8892 12.1704 12.6572 12.9385 13.6047 12.9385Z" fill="#F07281"/>
<path d="M33.1162 37.4262C34.0637 37.4262 34.8318 36.6582 34.8318 35.7107C34.8318 34.7632 34.0637 33.9951 33.1162 33.9951C32.1687 33.9951 31.4006 34.7632 31.4006 35.7107C31.4006 36.6582 32.1687 37.4262 33.1162 37.4262Z" fill="#F07281"/>
<path d="M1.71557 45.1138C2.66305 45.1138 3.43113 44.3457 3.43113 43.3982C3.43113 42.4507 2.66305 41.6826 1.71557 41.6826C0.768085 41.6826 0 42.4507 0 43.3982C0 44.3457 0.768085 45.1138 1.71557 45.1138Z" fill="#8AC9FE"/>
<path d="M33.3342 8.86033C34.2817 8.86033 35.0498 8.09224 35.0498 7.14476C35.0498 6.19728 34.2817 5.4292 33.3342 5.4292C32.3867 5.4292 31.6187 6.19728 31.6187 7.14476C31.6187 8.09224 32.3867 8.86033 33.3342 8.86033Z" fill="#97DA7B"/>
<path d="M37.4524 48.5727C38.3999 48.5727 39.1679 47.8046 39.1679 46.8572C39.1679 45.9097 38.3999 45.1416 37.4524 45.1416C36.5049 45.1416 35.7368 45.9097 35.7368 46.8572C35.7368 47.8046 36.5049 48.5727 37.4524 48.5727Z" fill="#97DA7B"/>
</svg>
